<svg xmlns="http://www.w3.org/2000/svg" viewBox="0 0 64 64" fill="none">
  <defs>
    <linearGradient id="bg" x1="0" y1="0" x2="64" y2="64" gradientUnits="userSpaceOnUse">
      <stop offset="0%" stop-color="#1a0a2e"/>
      <stop offset="50%" stop-color="#0a0a14"/>
      <stop offset="100%" stop-color="#0a1628"/>
    </linearGradient>
    <linearGradient id="pink" x1="12" y1="10" x2="40" y2="54" gradientUnits="userSpaceOnUse">
      <stop offset="0%" stop-color="#FF577F"/>
      <stop offset="50%" stop-color="#FF6B8F"/>
      <stop offset="100%" stop-color="#FF577F"/>
    </linearGradient>
    <linearGradient id="cyan" x1="28" y1="40" x2="56" y2="56" gradientUnits="userSpaceOnUse">
      <stop offset="0%" stop-color="#22d3ee"/>
      <stop offset="100%" stop-color="#3b82f6"/>
    </linearGradient>
    <linearGradient id="glow" x1="0" y1="0" x2="64" y2="64" gradientUnits="userSpaceOnUse">
      <stop offset="0%" stop-color="#FF577F" stop-opacity="0.3"/>
      <stop offset="100%" stop-color="#22d3ee" stop-opacity="0.3"/>
    </linearGradient>
  </defs>
  <!-- Background -->
  <rect width="64" height="64" rx="14" fill="url(#bg)"/>
  <rect width="64" height="64" rx="14" fill="url(#glow)" opacity="0.5"/>
  <!-- Border glow -->
  <rect x="1" y="1" width="62" height="62" rx="13" stroke="url(#pink)" stroke-width="1.5" stroke-opacity="0.4" fill="none"/>
  <!-- P letter -->
  <path d="M18 48V16h12c7.2 0 12 4.2 12 10.5S37.2 37 30 37h-4.5v11H18z" fill="url(#pink)"/>
  <path d="M25.5 22v9H30c3.3 0 5.5-1.8 5.5-4.5S33.3 22 30 22h-4.5z" fill="url(#bg)"/>
  <!-- Dot + m -->
  <circle cx="40" cy="48" r="2.5" fill="url(#cyan)"/>
  <path d="M45 42v6h1.8v-4.2c0-.9.6-1.5 1.4-1.5s1.2.5 1.2 1.4V48h1.8v-4.2c0-.9.6-1.5 1.4-1.5s1.2.5 1.2 1.4V48H56v-4.8c0-1.8-1-3-2.6-3-.9 0-1.7.4-2.2 1.1-.4-.7-1.1-1.1-2-1.1-.8 0-1.5.3-2 .9V42H45z" fill="url(#cyan)"/>
</svg>
